<svg xmlns="http://www.w3.org/2000/svg" width="777" height="776"><path d="M371.067 2.667C340.267 10.4 298 44 261.6 89.333c-18.8 23.6-33.333 49.734-37.467 67.334-2.666 11.2-2.666 29.333-.133 39.2 2.933 10.933 10.4 24.666 17.067 31.2l5.733 5.6-3.067 24.933c-6.133 52-3.733 78.533 9.734 105.333 7.066 14.134 7.466 15.467 6.933 22.667-.8 10.267-4.133 16.933-13.067 25.733-8.133 8.134-18.133 13.6-30.933 16.8-19.6 5.067-35.467-2.4-43.467-20.533-1.733-4-2.133-10.133-2.266-34.267-.134-26.266-.534-30.4-3.2-39.333-6.8-23.067-23.067-42.133-45.334-53.333-30.533-15.334-73.2-8.4-96.266 15.6C12.133 310.533 5.2 324.533 2 344.667c-2 12.266.133 19.333 6 20.8 5.6 1.333 9.2-1.2 16-11.467 3.467-5.2 9.467-12 13.2-14.933 7.067-5.734 19.733-12.134 26.933-13.6 3.867-.934 4-.8 3.467 3.066-.4 2.934.267 4.8 2.8 7.334 4.4 4.4 13.6 4.8 17.867.933 2.666-2.533 2.8-2.533 6.133.933 2.933 3.2 7.6 11.067 7.6 12.934 0 .4-1.2.666-2.533.666-3.734 0-6.8 5.067-6.8 11.2 0 4.267.933 6 4.8 9.734l4.8 4.533-1.467 10c-2.133 14.667-1.867 38 .667 47.733 4.533 17.6 18.266 37.467 33.066 48.134 15.067 10.666 27.867 15.2 46.8 16.533l12 .8-8 2.533c-12.133 3.734-28.266 3.334-50-1.2-24.133-5.066-44.133-5.333-58.666-.8-38.667 11.867-63.6 41.334-68 80.267-3.467 30.4 6.666 57.733 28.4 76C53.6 670.667 75.6 679.333 94.4 679.333c6.4 0 8.267-.533 10.933-3.333 6.8-6.667 3.467-13.467-8.8-18-9.866-3.467-18-10.667-23.066-20l-3.734-6.933 3.467-3.6c6.533-6.8 3.6-18.667-5.067-20.934-2.933-.666-3.066-1.066-1.866-5.6 2.666-10.4 3.866-12.4 6.933-11.333 6.267 2.267 11.733 1.067 15.867-3.6 3.333-3.733 3.733-5.2 3.2-9.467-.8-5.866.266-6.533 9.066-6.533 7.734 0 10 1.067 10 4.533 0 4.267 5.6 8.934 11.867 9.734 4.667.666 5.867.266 9.467-3.334l4-4.133 13.733 1.6c12.267 1.467 13.6 1.867 14 4.4.667 4.933 5.2 7.867 12.267 7.867 7.333 0 11.333-2.8 12.666-8.667.8-3.333 1.467-3.733 8.8-4.533 9.467-1.067 28.534-6.4 36-10 2.8-1.467 5.2-2.4 5.2-2.134 0 .134-3.6 8.134-7.866 17.467-9.867 21.6-12.667 30.933-16.934 55.2-1.866 10.667-4.533 22.8-6 27.067-5.2 15.6-14.8 26.933-27.733 33.066-5.467 2.534-7.467 2.8-19.067 2-11.866-.8-13.333-.533-15.733 1.867-3.733 3.733-3.467 10.8.4 14.4 1.6 1.467 5.733 4 9.067 5.467 28.266 12.533 61.333 7.333 86.666-13.6 16.534-13.734 28.134-32.8 37.734-61.6 2.666-8.134 5.333-15.334 5.866-16.267.534-.933 3.334 4.267 6.667 12.667 6.267 15.866 6.4 16.266 3.867 16.266-3.734 0-8.267 6.667-8.267 12.267 0 4.4.8 6 4.4 9.2 2.4 2.133 5.467 3.867 6.933 3.867 3.2 0 3.334 2.133.934 14.666-1.334 6.934-2.134 8.667-4.267 9.067-5.867.933-10.267 3.467-12 7.067-2.4 4.4-2.533 10.933-.533 14.8 1.2 2.266.8 3.466-3.067 7.333-6.933 7.333-15.867 11.2-27.6 12-11.733.8-15.6 2.667-16.8 8.4-2.267 10.133 10.4 15.867 37.333 16.933 14.667.667 16.8.4 26.667-2.8 14.933-5.066 27.733-13.066 38.8-24.266 7.6-7.734 10.8-12.267 16.267-23.334 10.4-21.733 11.6-27.2 11.6-55.2-.134-21.466-.534-25.6-3.734-39.066-10.933-45.467-10.8-44.134-10.666-61.6.133-30.667 10-55.867 25.333-64.934 14.8-8.666 31.467 2 40.4 26 8.933 23.6 8.8 48.134-.4 84.934-9.733 38.8-11.067 62.533-4.8 87.066 13.467 52.667 61.867 83.6 111.2 70.934 14.133-3.6 16.667-5.467 16.667-11.867 0-7.467-3.334-9.867-15.334-10.933-10.933-1.067-21.2-5.2-28.666-11.6-4.267-3.6-4.534-4.134-2.934-7.467 4.134-9.2 0-19.6-8.666-21.467-2-.533-4.4-1.066-5.2-1.333-.934-.267-2.267-4.267-3.067-9.067-2.133-12.266-2-14.266 1.2-14.266 1.467 0 4.533-1.734 6.8-3.734 3.467-3.066 4.133-4.666 4.133-9.466-.133-6-4.133-12.134-7.866-12.134-2.534 0-2.267-1.333 2.4-12.933 2.266-5.733 4.8-11.867 5.466-13.733 1.2-2.934 2.134-1.2 8.267 16 7.867 22 12.667 31.466 22.267 44.4 23.866 31.866 66.133 44.266 99.866 29.333 10.267-4.533 13.334-7.733 13.334-13.867 0-7.866-3.2-9.466-18-8.4-10.667.8-12.934.534-18.8-2-11.334-5.066-20.8-16.133-26.4-31.066-1.734-4.667-4.8-17.467-6.667-28.534-4-23.2-7.333-33.6-18-56.533-4.267-9.2-7.6-16.8-7.6-16.933.133-.134 4.4 1.333 9.6 3.466 10.267 4.134 22.933 7.467 33.6 8.934 5.467.666 6.933 1.333 6.933 3.333 0 1.333 1.467 4.133 3.2 6.133 6.134 7.067 22.134 4 22.134-4.266 0-2.667.933-2.934 13.866-4.4l14-1.6 4.134 4.266c3.6 3.6 4.8 4 9.466 3.334 6.267-.8 11.867-5.467 11.867-9.734 0-3.333 2.267-4.533 9.067-4.533 9.466 0 10.666.933 10 6.8-.667 4.533-.267 5.6 4.133 10 4.933 4.933 8.267 5.467 15.6 2.533 1.6-.666 2.667.534 4.4 4.667 2.8 6.933 2.8 12 0 12-1.067 0-3.867 1.867-6.133 4-3.6 3.6-4 4.8-3.334 9.733.534 3.867 1.867 6.4 4.4 8.534l3.6 2.8-3.466 6c-5.2 8.8-15.867 17.733-25.067 21.066-12 4.4-15.2 11.334-8.533 17.867 8.4 8.533 42.4.8 64-14.667 22.666-16.133 34-39.2 34-68.933 0-16.667-2.8-29.333-9.6-43.733-4.534-9.334-7.467-13.334-16.934-22.667-27.466-27.067-55.466-34-100.133-24.8-20.133 4.133-35.733 4.933-46.667 2.267-11.6-2.8-12.266-4-2.533-4.134 24.8-.133 50.4-13.333 66-34 16.8-22.4 22.133-45.466 17.733-77.733l-1.466-10.933 4.8-4.4c4-3.867 4.8-5.467 4.8-10.134 0-5.733-3.467-10.8-7.334-10.8-2.933 0-2.4-2.8 1.867-9.6 5.067-7.866 6.4-8.533 10-5.2 7.067 6.667 20.8 1.467 20.8-7.866 0-3.734.267-4 3.733-3.2 7.067 1.733 19.734 8.133 26.4 13.466 3.734 3.067 9.6 9.734 12.934 14.934 6.8 10.266 10.133 12.8 15.066 11.6 5.734-1.467 7.734-6.4 6.8-17.2-2.133-26.8-19.2-53.334-42.133-65.467-43.867-23.067-98.267-5.467-119.067 38.667-6.266 13.2-7.733 23.466-7.733 53.866 0 25.734-.267 27.734-3.2 34-3.067 6.8-9.733 13.734-16.8 17.334-6.533 3.333-14.933 3.866-25.733 1.466-22.667-5.066-42.534-24.133-44.667-42.8-.533-5.066.4-7.733 6.933-20.933 10.267-20.667 12.934-31.6 13.6-56.4.534-15.6 0-26.133-2.533-47.333l-3.2-27.334 6.933-7.6c12.134-13.466 18-29.333 18-48.8 0-9.333-.8-13.733-4.8-25.466-10.4-31.2-31.733-62.134-67.2-97.467-26.533-26.4-48-41.867-68.266-48.933-12.134-4.267-32.267-5.334-44-2.4Zm33.466 20.8c29.734 6.666 86.134 59.733 113.867 107.2 12.933 22.266 18 39.733 15.6 55.333-1.333 8.533-7.333 22.8-10 23.467-.667.266-2.667-2.4-4.4-5.867-6.8-14.133-20.533-29.333-19.333-21.467.133 1.067 2.4 13.2 4.933 27.2 7.467 41.334 10.667 68.134 10.667 92.667.133 26.267-1.067 32-12 54.933-11.734 24.667-11.2 36.134 2.266 56.267 15.334 22.933 43.067 36.8 70.534 35.2 19.2-1.067 35.466-12.267 44.4-30.267l4.266-8.8.134-30.666c.133-39.467 1.733-46.4 14.4-62.534 6-7.6 21.2-17.733 31.2-20.8 11.466-3.6 28.933-3.6 40.4 0 12.933 3.867 24.4 12.134 32 22.934l2.8 3.866-6.4-4.133c-30.667-19.333-66.934-10.533-81.334 19.867-5.066 10.533-5.466 21.466-1.866 46.533 2.4 17.333 2.666 22 1.466 30.8-2.533 19.067-10.533 34.4-24.666 47.867-12 11.333-27.6 16.533-49.467 16.4-17.067 0-30.533-3.467-48-12.134-7.2-3.6-13.6-6.266-13.867-5.866-.4.4 1.067 4 3.2 8 14.134 26.133 38.267 46 64.134 52.533 14 3.6 27.466 3.333 49.466-.933C664 516.133 686.667 516 699.6 520.4c17.2 6 32.933 19.2 40.533 34 7.334 14.267 10.267 35.2 7.2 51.733-2 10.934-9.466 24.934-17.466 32.534-3.867 3.733-6.4 5.466-5.867 4 4.667-11.734 6.4-18.8 7.067-27.867 2.4-38.267-24.8-66.133-61.734-63.067-5.2.534-16 2.4-24 4.267-66.666 15.867-114.133-3.867-161.066-66.933-4.4-6.134-8.267-10.8-8.4-10.667-.267.133 2 8.4 4.8 18.133 8.4 28.134 9.733 36.934 8.933 55.334-.8 20-4.4 34.133-15.6 62.933-17.467 44.533-19.6 53.467-18.133 75.2 1.466 23.067 8.666 41.467 21.866 56 8.534 9.467 7.334 9.733-8.133 1.6-18.533-9.6-34.267-32.267-39.067-56.267-3.6-18.133-2.133-42.4 4.134-66C443.2 592.8 445.2 576 443.2 555.6c-4.667-46.8-25.6-75.467-55.2-75.467-12.267 0-21.467 4.267-31.6 14.934-8.533 8.933-12.667 16.4-17.467 31.6-8.8 28-8.4 50 1.734 90 5.866 23.2 6.933 29.866 7.6 44.133 1.466 33.6-6.267 56.533-25.6 76-7.334 7.333-18.267 14-27.2 16.533-2.534.8-1.734-.666 4.266-8 15.334-18.533 21.334-36.4 21.467-63.333 0-19.2-1.333-25.333-11.2-50-26.667-66.667-28.667-91.6-11.6-143.067 1.733-5.2 2.8-9.6 2.133-9.6-.533 0-7.2 8.267-14.933 18.267-35.333 46.533-66 63.6-113.6 63.467-14.4-.134-20.8-.934-37.333-4.4-40.267-8.8-61.2-4.8-76.4 14.533-9.2 11.6-11.6 19.467-11.6 38.8 0 14.933.4 17.467 3.466 24.933l3.6 8.4-3.866-2.8c-8.934-6.266-16.934-19.733-19.734-32.933-2.133-10-1.866-29.067.534-38.267 3.066-11.733 8.266-20.4 18.666-30.666 21.6-21.734 45.467-26.4 88.934-17.467 10.666 2.133 21.333 3.467 28.8 3.467 26.933 0 53.066-12.934 70.133-34.667 7.6-9.733 18.133-26.8 17.333-28.267-.4-.533-7.333 2.4-15.6 6.267-17.333 8.533-29.6 11.467-47.066 11.467-23.734 0-40.534-6.534-53.6-20.934-17.734-19.2-23.467-42.4-18.4-72.666C123.2 366.4 123.6 360.133 122 351.333c-4.667-25.6-26.133-43.866-52-44-10.4 0-25.067 4.934-36 12.267l-4.667 3.067 2.934-4.134c3.733-5.2 13.066-13.866 19.066-17.466 12.534-7.734 33.867-10.667 49.734-7.2 15.466 3.6 33.066 16.666 41.333 30.933 2 3.333 4.933 11.2 6.533 17.333 2.534 10 2.667 13.467 2 33.6-.4 12.4-.266 25.467.4 29.067 3.067 16.133 14.934 31.2 30.534 38.933 8.133 4 9.6 4.267 22.8 4.267 15.333 0 22-1.6 37.2-9.067 15.066-7.466 31.733-25.466 36.933-39.866 1.2-3.2 2-10.134 2-15.6 0-9.334-.4-10.8-7.467-25.2-10.533-21.467-12.8-30.934-12.8-55.2 0-23.334 4.667-63.2 12.934-110.134 1.2-6.8 1.733-12.8 1.2-13.333-2-2-20.667 24-20.667 28.8 0 3.6-2.4 1.2-5.6-5.467-4-8-6.4-18.4-6.4-27.2 0-26.133 28-70.533 70.8-111.866 36.933-35.6 62.667-46.934 91.733-40.4Zm-131.6 559.866 4.667 19.334L272.267 614c-2.8 6.267-8.134 19.733-11.867 30-3.6 10.267-8.8 22.533-11.467 27.333-8.266 15.067-26.933 30.934-41.6 35.334-2.8.933-2.133-.134 3.467-6.267 7.6-8.4 15.333-22.133 18.4-33.067 1.2-4 3.333-14.8 4.8-23.866 3.867-22.934 9.067-38.534 21.733-64.534 9.734-20 11.067-22 11.867-18.666.4 2 2.933 12.4 5.333 23.066Zm249.334-2.666c11.866 24.533 17.6 41.866 21.066 62.8 3.334 19.733 5.734 28.8 10.267 37.866 4 7.734 13.867 20.934 18.133 24.134 2.934 2.133 2.934 2.133-1.066 1.2-9.467-2.134-18.934-8.134-29.334-18.667-11.866-11.867-16.266-19.6-24.666-43.2-2.8-7.867-7.867-20.267-11.2-27.733l-6-13.467 4.666-18.267c2.534-10.133 4.667-20.8 4.8-23.733.134-4.933.267-5.067 2.134-2.8 1.066 1.467 6.133 11.2 11.2 21.867Z"/><path d="M291.2 278.4c-4.533 2.4-6.8 4.8-9.733 10.8-3.6 6.933-4 8.8-3.867 20.533 0 9.734.667 15.067 2.933 21.6 9.6 27.6 30.134 42.534 48.8 35.334 10.934-4.134 16-14.267 15.867-31.334-.133-18.533-6.267-34.8-17.6-47.066C316.133 276 302.667 272.4 291.2 278.4Zm22.267 21.6C317.6 303.067 326 317.6 326 321.6c0 1.333-.667 1.467-2.533.4-1.467-.667-5.334-1.333-8.534-1.333-6.266 0-9.066 2-11.466 8-1.2 3.333-1.2 3.333-3.334-1.6C297.6 321.2 296 308.8 297.2 304.133c2-7.866 8.933-9.733 16.267-4.133ZM462.667 278.533c-18.934 8.8-33.6 39.867-30.134 64 1.334 9.734 3.6 14.667 9.067 19.734 18.133 17.2 47.733-2.4 55.867-37.2 2.8-12 2-28.4-1.734-35.734-7.066-13.466-19.066-17.466-33.066-10.8ZM477.2 298.8c3.067 2.933 3.867 7.733 2.933 16.133-.8 7.2-6 19.6-6.133 14.667 0-1.333-1.467-3.867-3.333-5.6-3.467-3.6-11.867-4.533-16.8-2-3.2 1.733-3.2 1.733.266-7.467 5.2-13.866 16.934-21.866 23.067-15.733Z"/></svg>